<?xml version="1.0" encoding="utf-8"?>
<!-- Svg Vector Icons : http://www.onlinewebfonts.com/icon -->
<!DOCTYPE svg PUBLIC "-//W3C//DTD SVG 1.1//EN" "http://www.w3.org/Graphics/SVG/1.1/DTD/svg11.dtd">
<svg version="1.1" xmlns="http://www.w3.org/2000/svg" xmlns:xlink="http://www.w3.org/1999/xlink" x="0px" y="0px" viewBox="0 0 256 256" enable-background="new 0 0 256 256" xml:space="preserve">
<metadata> Svg Vector Icons : http://www.onlinewebfonts.com/icon </metadata>
<g><g><g><path fill="#000000" d="M10,26.3c0,0.2,13.6,23.8,30.2,52.6c16.6,28.7,43,74.5,58.7,101.7c15.7,27.2,28.8,49.5,29.1,49.5s6.1-9.6,12.8-21.3c11.6-20.1,27.2-47.2,81.7-141.4c12.9-22.4,23.5-40.9,23.5-41c0-0.2-53.1-0.3-118-0.3C63.1,26,10,26.1,10,26.3z M228.9,37.9C204.2,81.1,128.2,212.4,128,212.4c-0.2,0-7.3-12.2-15.9-27.2C99.8,163.9,26.9,37.5,25.7,35.6c-0.1-0.2,45.9-0.4,102.3-0.4h102.5L228.9,37.9z"/></g></g></g>
</svg>